<?xml version="1.0" encoding="utf-8"?>
<!-- Generator: Adobe Illustrator 26.1.0, SVG Export Plug-In . SVG Version: 6.00 Build 0)  -->
<svg version="1.1" id="Outline" xmlns="http://www.w3.org/2000/svg" xmlns:xlink="http://www.w3.org/1999/xlink" x="0px" y="0px"
	 viewBox="0 0 64 64" enable-background="new 0 0 64 64" xml:space="preserve">
<g>
	<path d="M61,33c0.553,0,1-0.447,1-1V11c0-2.757-2.243-5-5-5H7c-2.757,0-5,2.243-5,5v17c0,0.553,0.448,1,1,1c0.552,0,1-0.447,1-1V16
		h11v32H7c-1.654,0-3-1.346-3-3V32c0-0.553-0.448-1-1-1c-0.552,0-1,0.447-1,1v13c0,2.757,2.243,5,5,5h10.922
		c-0.34,2.224-1.799,4.145-3.912,5.051L11.795,56H9c-2.757,0-5,2.243-5,5c0,0.553,0.448,1,1,1h39c0.553,0,1-0.447,1-1s-0.447-1-1-1
		H6.171C6.584,58.836,7.696,58,9,58h46c1.304,0,2.416,0.836,2.829,2H48c-0.553,0-1,0.447-1,1s0.447,1,1,1h11c0.553,0,1-0.447,1-1
		c0-2.757-2.243-5-5-5h-2.796l-2.215-0.949c-2.112-0.906-3.571-2.827-3.911-5.051H57c2.757,0,5-2.243,5-5v-9c0-0.553-0.447-1-1-1
		c-0.553,0-1,0.447-1,1v9c0,1.654-1.346,3-3,3H37V16h20c0.553,0,1-0.447,1-1s-0.447-1-1-1H4v-3c0-1.654,1.346-3,3-3h50
		c1.654,0,3,1.346,3,3v21C60,32.553,60.447,33,61,33z M47.615,56h-31.23c1.972-1.397,3.274-3.574,3.557-6h24.116
		C44.341,52.426,45.643,54.603,47.615,56z M17,48V34h18v14H17z M35,32H17V16h18V32z"/>
	<circle cx="7" cy="11" r="1"/>
	<circle cx="11" cy="11" r="1"/>
	<circle cx="15" cy="11" r="1"/>
	<path d="M20,10c-0.552,0-1,0.447-1,1s0.448,1,1,1h35c0.553,0,1-0.447,1-1s-0.447-1-1-1H20z"/>
	<path d="M7,21h5c0.552,0,1-0.447,1-1s-0.448-1-1-1H7c-0.552,0-1,0.447-1,1S6.448,21,7,21z"/>
	<path d="M7,25h5c0.552,0,1-0.447,1-1s-0.448-1-1-1H7c-0.552,0-1,0.447-1,1S6.448,25,7,25z"/>
	<path d="M7,29h5c0.552,0,1-0.447,1-1s-0.448-1-1-1H7c-0.552,0-1,0.447-1,1S6.448,29,7,29z"/>
	<path d="M7,33h5c0.552,0,1-0.447,1-1s-0.448-1-1-1H7c-0.552,0-1,0.447-1,1S6.448,33,7,33z"/>
	<path d="M7,37h5c0.552,0,1-0.447,1-1s-0.448-1-1-1H7c-0.552,0-1,0.447-1,1S6.448,37,7,37z"/>
	<path d="M39,41c0,0.553,0.447,1,1,1c0.553,0,1-0.447,1-1v-4c0-0.553-0.447-1-1-1c-0.553,0-1,0.447-1,1V41z"/>
	<path d="M44,39c-0.553,0-1,0.447-1,1v1c0,0.553,0.447,1,1,1c0.553,0,1-0.447,1-1v-1C45,39.447,44.553,39,44,39z"/>
	<path d="M47,36v5c0,0.553,0.447,1,1,1c0.553,0,1-0.447,1-1v-5c0-0.553-0.447-1-1-1C47.447,35,47,35.447,47,36z"/>
	<path d="M51,31v10c0,0.553,0.447,1,1,1c0.553,0,1-0.447,1-1V31c0-0.553-0.447-1-1-1C51.447,30,51,30.447,51,31z"/>
	<path d="M57,29c0-0.553-0.447-1-1-1c-0.553,0-1,0.447-1,1v12c0,0.553,0.447,1,1,1c0.553,0,1-0.447,1-1V29z"/>
	<path d="M40,46h16c0.553,0,1-0.447,1-1s-0.447-1-1-1H40c-0.553,0-1,0.447-1,1S39.447,46,40,46z"/>
	<path d="M40.447,31.105c-0.493-0.245-1.094-0.047-1.342,0.447c-0.247,0.494-0.047,1.095,0.447,1.342l4,2
		C43.695,34.966,43.849,35,43.999,35c0.307,0,0.606-0.141,0.801-0.4l5.812-7.75l5.704-1.901c0.523-0.174,0.807-0.74,0.632-1.265
		c-0.175-0.523-0.736-0.809-1.265-0.632l-6,2c-0.192,0.063-0.361,0.186-0.483,0.349l-5.499,7.332L40.447,31.105z"/>
	<path d="M44,18h-4c-0.553,0-1,0.447-1,1v8c0,0.553,0.447,1,1,1h4c0.553,0,1-0.447,1-1v-8C45,18.447,44.553,18,44,18z M41,20h2v2h-2
		V20z M43,26h-2v-2h2V26z"/>
	<path d="M54,20c0.553,0,1-0.447,1-1s-0.447-1-1-1h-6c-0.553,0-1,0.447-1,1s0.447,1,1,1H54z"/>
	<path d="M24,36c-2.757,0-5,2.243-5,5s2.243,5,5,5c2.757,0,5-2.243,5-5S26.757,36,24,36z M26.816,40H25v-1.816
		C25.847,38.486,26.514,39.153,26.816,40z M24,44c-1.654,0-3-1.346-3-3c0-1.302,0.838-2.402,2-2.816V41c0,0.553,0.448,1,1,1h2.816
		C26.402,43.161,25.302,44,24,44z"/>
	<path d="M32,36h-2c-0.552,0-1,0.447-1,1s0.448,1,1,1h2c0.552,0,1-0.447,1-1S32.552,36,32,36z"/>
	<circle cx="32" cy="45" r="1"/>
	<path d="M20,30h12c0.552,0,1-0.447,1-1s-0.448-1-1-1H21.868l2.573-3.859l3.316,0.829c0.341,0.087,0.701-0.014,0.95-0.263l4-4
		c0.391-0.391,0.391-1.023,0-1.414c-0.391-0.391-1.023-0.391-1.414,0l-3.6,3.6l-3.451-0.862c-0.409-0.104-0.84,0.063-1.075,0.415
		L21,25.697V19c0-0.553-0.448-1-1-1c-0.552,0-1,0.447-1,1v10C19,29.553,19.448,30,20,30z"/>
</g>
</svg>
